PathFileType	4	(X/Y/Z)	output.trc
DataRate	CameraRate	NumFrames	NumMarkers	Units	OrigDataRate	OrigDataStartFrame	OrigNumFrames
128	128	14	47	mm	128	251	1000
Frame#	Time	C7			LSHO			RSHO			CLAV			T10			LUPA			RELB			LELB			LFRA			RFRA			RWRB			RWRA			RFIN			LWRB			LWRA			LFIN			RASI			LASI			RPSI			LPSI			RANK			LANK			LMMA			LHEE			LTOE			RMMA			RHEE			RTOE			RMT5			LMT5			RKNE			LKNE			LMFC			RMFC			RFM2			LFM2			RTP2			RTP3			RTA3			LTP2			LTP3			LTA3			LBHD			RBHD			RFHD			RGTR			LGTR			
		X1	Y1	Z1	X2	Y2	Z2	X3	Y3	Z3	X4	Y4	Z4	X5	Y5	Z5	X6	Y6	Z6	X7	Y7	Z7	X8	Y8	Z8	X9	Y9	Z9	X10	Y10	Z10	X11	Y11	Z11	X12	Y12	Z12	X13	Y13	Z13	X14	Y14	Z14	X15	Y15	Z15	X16	Y16	Z16	X17	Y17	Z17	X18	Y18	Z18	X19	Y19	Z19	X20	Y20	Z20	X21	Y21	Z21	X22	Y22	Z22	X23	Y23	Z23	X24	Y24	Z24	X25	Y25	Z25	X26	Y26	Z26	X27	Y27	Z27	X28	Y28	Z28	X29	Y29	Z29	X30	Y30	Z30	X31	Y31	Z31	X32	Y32	Z32	X33	Y33	Z33	X34	Y34	Z34	X35	Y35	Z35	X36	Y36	Z36	X37	Y37	Z37	X38	Y38	Z38	X39	Y39	Z39	X40	Y40	Z40	X41	Y41	Z41	X42	Y42	Z42	X43	Y43	Z43	X44	Y44	Z44	X45	Y45	Z45	X46	Y46	Z46	X47	Y47	Z47	

251	1.95312	1545.98889	1522.93511	1519.21917	1461.61712	1265.27607	1401.78190	1125.05123	1130.52653	1032.43361	1026.79451	872.51026	891.11587	800.71408	891.88068	892.51732	794.34614	1042.28100	1042.18385	1121.97425	1127.01374	65.79753	66.97704	80.17781	26.99965	38.90631	52.41663	23.19287	35.35586	26.25907	25.41822	508.03967	516.04116	516.52517	526.38325	602.33839	646.75258	273.51465	325.66069	299.73416	289.76788	353.68143	310.12259	1429.38106	1829.38106	1459.38106	1429.38106	1829.38106	1599.38106	1629.38106	1829.38106	1599.38106	872.51026	891.88068	
252	1.96094	1545.98858	1522.97302	1519.22945	1461.65898	1265.25682	1401.84630	1125.07105	1130.59701	1032.51260	1026.77363	872.49047	891.11529	800.86327	891.91561	892.50905	794.47865	1042.26765	1042.17097	1121.96196	1127.02427	65.77241	66.99918	80.14738	27.04231	38.92344	52.39454	23.17081	35.32334	26.36819	25.40500	508.08491	516.03933	516.53325	526.35873	602.37367	646.75114	273.50773	325.65066	299.76930	289.76580	353.63479	310.06811	1429.39702	1829.39702	1459.39702	1429.39702	1829.39702	1599.39702	1629.39702	1829.39702	1599.39702	872.49047	891.91561	
253	1.96875	1546.15266	1522.98100	1519.22484	1461.65704	1265.29285	1401.88626	1125.08721	1130.67647	1032.58429	1026.82340	872.51028	891.12527	800.89496	891.99768	892.50758	794.70006	1042.28736	1042.20239	1122.01733	1127.02538	65.80806	67.00002	80.16384	27.00769	38.92417	52.41994	23.18087	35.41037	26.28636	25.35985	508.04134	516.01208	516.53488	526.38368	602.36285	646.75491	273.51265	325.66502	299.76411	289.73566	353.66561	310.07441	1429.45283	1829.45283	1459.45283	1429.45283	1829.45283	1599.45283	1629.45283	1829.45283	1599.45283	872.51028	891.99768	
254	1.97656	1546.16733	1523.00554	1519.23351	1461.67861	1265.29806	1401.92485	1125.06063	1130.72217	1032.63292	1026.81350	872.51729	891.11327	800.95934	891.98408	892.50305	794.88914	1042.29728	1042.19118	1121.98539	1127.07788	65.80551	67.01436	80.15743	26.99568	38.90378	52.41490	23.20593	35.33189	26.26322	25.36562	508.12054	516.01577	516.51487	526.42110	602.33214	646.68993	273.52796	325.66324	299.73184	289.75348	353.64851	310.08893	1429.46879	1829.46879	1459.46879	1429.46879	1829.46879	1599.46879	1629.46879	1829.46879	1599.46879	872.51729	891.98408	
255	1.98438	1546.17308	1523.01674	1519.24431	1461.67970	1265.30708	1401.93870	1125.06271	1130.77766	1032.69269	1026.79508	872.51457	891.13389	800.99902	892.01617	892.52213	795.07108	1042.31239	1042.19398	1121.96228	1127.06525	65.82387	67.01752	80.14514	27.02220	38.94729	52.41307	23.16911	35.38290	26.28459	25.40001	508.10366	516.04178	516.54661	526.35202	602.35962	646.70657	273.50885	325.69160	299.74248	289.78100	353.65332	310.07930	1429.47804	1829.47804	1459.47804	1429.47804	1829.47804	1599.47804	1629.47804	1829.47804	1599.47804	872.51457	892.01617	
256	1.99219	1546.13334	1522.97018	1519.23517	1461.68329	1265.27142	1402.00949	1125.05554	1130.80193	1032.77067	1026.79730	872.51014	891.09067	801.04938	892.05194	892.50455	795.26107	1042.28215	1042.19521	1121.96844	1127.01570	65.81503	67.00153	80.15616	26.97689	38.92279	52.38702	23.17135	35.33560	26.23380	25.36466	508.19134	516.04625	516.54583	526.37228	602.34097	646.71948	273.48589	325.66440	299.74282	289.77127	353.69733	310.08360	1429.44623	1829.44623	1459.44623	1429.44623	1829.44623	1599.44623	1629.44623	1829.44623	1599.44623	872.51014	892.05194	
257	2.00000	1546.14626	1523.03643	1519.25799	1461.69032	1265.26943	1402.07357	1125.02816	1130.83186	1032.76210	1026.77320	872.48601	891.04821	801.07990	892.06663	892.52947	795.41906	1042.26863	1042.22294	1121.92795	1126.98978	65.80902	67.00132	80.14735	26.98859	38.94206	52.41226	23.15125	35.35999	26.28674	25.32946	508.10229	516.05676	516.55820	526.36642	602.37924	646.75383	273.51608	325.67904	299.75217	289.79331	353.68690	310.10300	1429.48023	1829.48023	1459.48023	1429.48023	1829.48023	1599.48023	1629.48023	1829.48023	1599.48023	872.48601	892.06663	
258	2.00781	1546.11447	1523.03559	1519.22505	1461.70412	1265.27919	1402.12624	1125.06206	1130.88994	1032.81995	1026.75749	872.48394	891.02271	801.13323	892.08377	892.54580	795.55454	1042.29772	1042.16578	1121.95335	1126.98107	65.80737	66.98368	80.15936	26.97161	38.90096	52.40479	23.15558	35.32997	26.29926	25.30894	508.15581	516.05445	516.53788	526.29924	602.38212	646.73499	273.52077	325.63356	299.75988	289.78760	353.67107	310.09337	1429.45837	1829.45837	1459.45837	1429.45837	1829.45837	1599.45837	1629.45837	1829.45837	1599.45837	872.48394	892.08377	
259	2.01562	1546.13725	1523.04358	1519.22314	1461.70731	1265.28923	1402.16896	1125.09142	1130.94858	1032.85473	1026.74029	872.48894	891.00251	801.14715	892.14176	892.52214	795.69800	1042.28248	1042.22680	1121.94180	1127.04009	65.80299	67.00879	80.14997	26.96790	38.88961	52.42559	23.15390	35.33083	26.28420	25.33454	508.10066	516.03752	516.58753	526.33202	602.32944	646.74476	273.49377	325.64596	299.74978	289.75091	353.63889	310.06265	1429.46799	1829.46799	1459.46799	1429.46799	1829.46799	1599.46799	1629.46799	1829.46799	1599.46799	872.48894	892.14176	
260	2.02344	1546.14005	1523.05012	1519.24683	1461.76354	1265.27449	1402.18302	1125.08969	1130.98163	1032.91242	1026.77880	872.52567	891.00012	801.21764	892.16086	892.55778	795.83194	1042.34193	1042.23872	1121.95194	1126.98347	65.78488	67.00120	80.18564	27.00158	38.89240	52.42217	23.12293	35.29474	26.26693	25.34343	508.11952	516.02662	516.53877	526.40380	602.36389	646.71710	273.51557	325.67387	299.73211	289.71529	353.69073	310.05444	1429.47900	1829.47900	1459.47900	1429.47900	1829.47900	1599.47900	1629.47900	1829.47900	1599.47900	872.52567	892.16086	
261	2.03125	1546.14774	1523.06998	1519.31442	1461.81136	1265.26384	1402.20788	1125.08629	1130.97638	1032.92757	1026.83102	872.52969	890.99503	801.21210	892.16251	892.55507	795.91826	1042.35556	1042.24308	1121.95352	1127.04059	65.81513	67.01299	80.17005	27.02309	38.94529	52.41380	23.16614	35.39488	26.29651	25.37431	508.12781	516.04635	516.55002	526.37666	602.35120	646.74224	273.52987	325.66944	299.73381	289.77769	353.67423	310.12180	1429.51071	1829.51071	1459.51071	1429.51071	1829.51071	1599.51071	1629.51071	1829.51071	1599.51071	872.52969	892.16251	
262	2.03906	1546.14808	1523.02195	1519.30698	1461.89106	1265.23892	1402.24981	1125.06525	1131.02552	1032.98219	1026.81957	872.51334	890.96962	801.25587	892.19705	892.56901	796.00313	1042.36883	1042.19221	1121.92250	1127.00904	65.81689	66.99639	80.19505	26.98724	38.93967	52.40512	23.16287	35.35124	26.31775	25.35432	508.38902	516.05284	516.56881	526.34337	602.39920	646.75147	273.55624	325.67603	299.77536	289.78481	353.72462	310.12331	1429.49234	1829.49234	1459.49234	1429.49234	1829.49234	1599.49234	1629.49234	1829.49234	1599.49234	872.51334	892.19705	
263	2.04688	1546.14993	1523.10703	1519.29050	1461.85166	1265.22886	1402.29544	1125.09410	1131.04058	1033.02528	1026.84795	872.52536	890.96409	801.17998	892.24409	892.62226	796.13323	1042.40251	1042.27166	1121.94200	1126.98621	65.79049	67.01655	80.18931	27.00412	38.93749	52.39022	23.17409	35.34499	26.28036	25.37936	508.11375	516.05764	516.58147	526.36164	602.38058	646.75267	273.54121	325.67414	299.75075	289.80875	353.70971	310.13333	1429.51582	1829.51582	1459.51582	1429.51582	1829.51582	1599.51582	1629.51582	1829.51582	1599.51582	872.52536	892.24409	
264	2.05469	1546.11663	1523.04358	1519.24139	1461.90463	1265.19474	1402.33100	1125.10014	1131.08907	1033.06806	1026.83443	872.54154	890.95691	801.27584	892.28152	892.62997	796.28801	1042.39011	1042.19324	1121.91793	1126.98356	65.81147	66.97398	80.17711	26.96222	38.93449	52.42601	23.14818	35.31968	26.24429	25.37769	508.17690	516.05563	516.59238	526.38437	602.35327	646.78805	273.53406	325.66347	299.75808	289.81142	353.73070	310.15536	1429.46720	1829.46720	1459.46720	1429.46720	1829.46720	1599.46720	1629.46720	1829.46720	1599.46720	872.54154	892.28152	
